<?xml version="1.0" standalone="no"?>
<!DOCTYPE svg PUBLIC "-//W3C//DTD SVG 20010904//EN"
 "http://www.w3.org/TR/2001/REC-SVG-20010904/DTD/svg10.dtd">
<svg version="1.0" xmlns="http://www.w3.org/2000/svg"
 width="512.000000pt" height="512.000000pt" viewBox="0 0 512.000000 512.000000"
 preserveAspectRatio="xMidYMid meet">
<metadata>
Created by potrace 1.11, written by Peter Selinger 2001-2013
</metadata>
<g transform="translate(0.000000,512.000000) scale(0.100000,-0.100000)"
fill="#000000" stroke="none">
<path d="M2396 5083 c-2 -2 -32 -6 -67 -8 -35 -3 -75 -7 -89 -10 -14 -3 -46
-8 -73 -10 -38 -4 -134 -24 -175 -35 -4 -2 -11 -4 -17 -5 -5 -2 -35 -9 -65
-16 -30 -6 -61 -16 -68 -22 -7 -5 -15 -7 -19 -4 -3 4 -12 2 -19 -3 -6 -6 -16
-10 -20 -9 -5 1 -20 -2 -34 -8 -14 -6 -42 -18 -63 -26 -20 -9 -41 -17 -45 -18
-4 0 -25 -8 -47 -17 -22 -9 -43 -16 -47 -14 -5 1 -8 -2 -8 -7 0 -5 -10 -12
-22 -16 -13 -4 -25 -8 -28 -9 -26 -10 -164 -85 -196 -107 -23 -15 -44 -25 -48
-22 -3 4 -6 1 -6 -5 0 -6 -9 -14 -20 -17 -11 -3 -26 -12 -33 -18 -25 -23 -76
-57 -87 -57 -5 0 -10 -3 -10 -7 0 -5 -16 -19 -35 -32 -19 -13 -45 -32 -57 -43
-13 -10 -45 -38 -73 -61 -113 -96 -261 -254 -359 -382 -25 -33 -49 -64 -54
-70 -4 -5 -19 -28 -32 -50 -13 -22 -28 -41 -32 -43 -4 -2 -8 -9 -8 -16 0 -7
-8 -21 -18 -32 -10 -10 -24 -34 -31 -51 -7 -18 -17 -33 -22 -33 -5 0 -9 -9 -9
-20 0 -11 -4 -20 -10 -20 -5 0 -10 -9 -10 -19 0 -11 -3 -21 -7 -23 -7 -2 -53
-89 -58 -108 -2 -5 -5 -13 -48 -115 -14 -33 -27 -69 -29 -80 -1 -11 -7 -23
-11 -26 -4 -3 -9 -16 -10 -27 -1 -12 -5 -22 -10 -22 -4 0 -5 -4 -2 -10 3 -6 3
-16 -2 -22 -4 -7 -9 -22 -10 -32 -2 -11 -7 -24 -11 -30 -5 -6 -8 -18 -7 -26 1
-8 -2 -22 -6 -31 -10 -20 -22 -78 -21 -101 0 -10 -3 -18 -9 -18 -5 0 -8 -3 -7
-7 1 -5 -2 -33 -7 -63 -4 -30 -9 -66 -11 -80 -2 -14 -6 -52 -10 -85 -4 -33 -7
-79 -8 -102 0 -24 -3 -43 -6 -43 -10 0 1 -311 15 -412 3 -21 7 -55 10 -75 3
-21 8 -59 12 -85 3 -27 9 -48 12 -48 3 0 7 -19 8 -41 2 -23 8 -48 14 -55 6 -8
9 -14 6 -14 -3 0 2 -24 10 -52 8 -29 16 -60 17 -68 2 -8 6 -22 9 -30 3 -8 12
-35 20 -60 35 -106 156 -381 177 -400 3 -3 14 -23 25 -44 11 -22 39 -69 63
-104 23 -36 42 -68 42 -72 0 -4 9 -15 20 -25 11 -10 20 -24 20 -32 0 -8 4 -12
9 -8 5 3 12 -3 15 -12 4 -10 19 -32 34 -50 15 -17 43 -51 62 -75 67 -82 330
-338 330 -320 0 4 7 -4 16 -16 8 -12 20 -22 25 -22 5 0 19 -9 31 -19 30 -28
197 -141 208 -141 6 0 10 -3 10 -7 0 -5 10 -13 23 -19 12 -6 72 -36 132 -67
142 -71 231 -110 300 -131 6 -2 19 -6 30 -10 54 -21 72 -26 95 -30 14 -3 26
-5 28 -7 1 -1 7 -3 12 -4 6 -1 12 -4 15 -5 3 -1 8 -3 13 -5 36 -10 61 -15 82
-19 37 -6 84 -18 95 -24 5 -3 26 -6 46 -6 21 -1 40 -4 44 -8 4 -4 13 -4 20 -2
7 3 23 1 34 -6 15 -8 21 -8 21 0 0 6 5 8 12 4 13 -8 49 -12 168 -18 47 -2 90
-5 95 -6 6 -1 12 -2 15 -1 3 1 52 4 110 6 107 3 201 11 255 22 17 3 44 7 60 9
17 1 41 5 55 8 51 12 90 18 96 16 4 -1 11 4 15 12 7 10 9 10 9 -2 0 -9 3 -11
8 -5 6 8 65 28 152 50 8 2 15 4 15 5 0 1 7 3 15 5 8 1 45 14 82 28 36 14 69
23 72 20 3 -4 6 -2 6 3 0 8 55 34 80 39 3 1 29 13 58 28 28 15 52 24 52 20 0
-5 4 -3 8 2 9 14 80 55 93 55 5 0 15 5 22 10 7 6 55 38 107 72 103 65 230 160
293 217 86 78 227 222 227 232 0 6 5 7 10 4 6 -3 10 -2 10 4 0 5 7 17 15 25 9
8 40 48 70 88 30 40 61 80 68 88 8 8 20 26 27 39 7 14 21 34 31 44 10 11 16
24 13 29 -3 4 -1 8 4 8 5 0 15 14 22 30 7 17 17 30 23 30 6 0 7 3 4 6 -4 4 2
19 12 33 53 74 200 413 217 500 3 13 9 32 15 43 5 10 7 23 4 28 -3 6 -2 10 2
10 5 0 10 8 11 18 2 24 10 67 12 67 3 0 21 83 25 115 2 14 4 25 5 25 1 0 8 47
15 100 2 17 4 32 5 35 1 3 1 16 0 29 -1 16 2 21 10 16 9 -6 9 -2 1 14 -7 11
-8 21 -3 21 9 0 8 421 -2 485 -3 22 -9 63 -12 90 -3 28 -8 59 -11 70 -2 11 -6
34 -9 50 -13 78 -23 121 -34 151 -6 14 -8 30 -4 35 3 5 1 9 -5 9 -5 0 -9 8 -9
18 1 20 -66 218 -88 260 -7 15 -14 30 -14 34 0 3 -14 37 -32 75 -17 37 -32 71
-32 75 -1 4 -9 17 -19 28 -10 12 -15 25 -12 30 3 5 1 11 -5 15 -6 3 -20 25
-31 48 -12 23 -25 44 -28 47 -3 3 -15 22 -26 43 -11 20 -23 37 -27 37 -5 0 -8
5 -8 11 0 10 -113 170 -145 205 -5 6 -35 40 -65 75 -72 82 -140 150 -224 224
-38 33 -76 67 -85 75 -9 8 -32 26 -51 40 -19 13 -38 29 -42 35 -4 5 -8 6 -8 2
0 -4 -12 4 -27 18 -16 14 -36 28 -45 31 -10 3 -18 10 -18 15 0 6 -4 8 -9 5 -4
-3 -16 3 -26 14 -10 11 -22 20 -26 20 -5 0 -33 16 -63 35 -30 19 -60 35 -66
35 -5 0 -10 4 -10 10 0 5 -3 9 -7 8 -5 -1 -57 22 -118 51 -60 29 -117 55 -125
57 -44 11 -90 30 -90 37 0 5 -4 5 -10 2 -5 -3 -10 -1 -10 5 0 6 -4 8 -10 5 -5
-3 -18 -1 -28 4 -11 6 -30 12 -43 15 -63 14 -120 32 -114 37 3 4 -6 4 -20 2
-14 -3 -31 -1 -38 5 -7 6 -22 11 -32 11 -22 1 -70 8 -70 11 0 2 -9 4 -20 5
-49 7 -112 17 -135 21 -14 3 -53 6 -87 7 -35 1 -63 7 -63 12 0 6 -5 3 -10 -5
-5 -8 -10 -10 -10 -4 0 7 -52 10 -156 10 -85 0 -156 -2 -158 -3z m185 -1149
c7 -4 10 -3 6 2 -3 5 9 8 26 7 107 -9 182 -18 182 -23 0 -1 11 -4 25 -5 80
-12 109 -18 105 -25 -3 -4 1 -7 8 -7 21 2 87 -15 87 -22 0 -4 8 -7 19 -8 25
-2 211 -94 211 -104 0 -5 3 -8 8 -7 10 3 72 -35 72 -44 0 -4 7 -8 15 -8 8 0
15 -4 15 -10 0 -5 5 -10 10 -10 21 0 202 -174 255 -245 17 -22 36 -46 42 -53
45 -47 164 -283 188 -372 2 -8 9 -31 15 -50 6 -19 14 -48 17 -65 8 -44 11 -60
13 -60 1 0 3 -13 6 -30 24 -167 20 -356 -12 -495 -9 -41 -17 -85 -18 -97 0
-13 -4 -23 -7 -23 -3 0 -12 -22 -19 -50 -7 -27 -18 -50 -22 -50 -5 0 -7 -4 -4
-9 3 -5 -13 -46 -36 -92 -23 -46 -41 -88 -40 -92 1 -4 -5 -10 -13 -13 -8 -4
-15 -11 -15 -17 0 -5 -11 -25 -25 -43 -14 -18 -25 -36 -25 -39 0 -4 -6 -12
-12 -19 -7 -7 -26 -31 -43 -52 -37 -47 -150 -160 -194 -194 -18 -14 -42 -33
-54 -43 -32 -27 -130 -87 -141 -86 -5 0 -12 -5 -17 -13 -5 -7 -12 -14 -16 -14
-26 -5 -53 -18 -53 -25 0 -5 -3 -8 -7 -7 -5 1 -24 -5 -43 -13 -32 -14 -131
-48 -155 -54 -5 -1 -13 -4 -17 -5 -64 -22 -176 -40 -274 -44 -39 -2 -77 -6
-83 -10 -6 -4 -11 -3 -11 2 0 5 -12 7 -27 5 -16 -2 -35 -4 -43 -3 -28 1 -115
0 -168 -1 -29 -1 -56 1 -59 5 -3 3 -12 1 -20 -5 -7 -6 -13 -7 -13 -2 0 10 -94
8 -111 -3 -8 -5 -9 -3 -4 5 6 10 3 11 -14 2 -11 -7 -21 -8 -21 -3 0 5 -12 7
-27 5 -16 -2 -35 -4 -43 -3 -28 1 -115 0 -168 -1 -29 -1 -56 1 -59 5 -3 3 -12
1 -20 -5 -7 -6 -13 -7 -13 -2 0 10 -94 8 -111 -3 -8 -5 -9 -3 -4 5 6 10 3 11
-14 2 -11 -7 -21 -8 -21 -3 0 5 -12 7 -27 5 -16 -2 -35 -4 -43 -3 -16 0 -79 0
-165 0 -83 0 -106 5 -130 28 -25 24 -37 76 -21 92 6 6 6 10 1 10 -6 0 -6 3 0
8 15 11 55 70 55 82 0 5 4 10 9 10 5 0 14 14 21 30 7 17 16 30 21 30 5 0 9 4
9 9 0 5 34 62 75 126 l74 117 -22 31 c-12 17 -26 36 -32 42 -5 7 -19 29 -30
51 -11 21 -23 41 -27 42 -5 2 -8 10 -8 18 0 8 -4 14 -8 14 -5 0 -9 6 -9 13 -1
10 -38 100 -76 184 -5 12 -9 33 -9 47 0 14 -4 26 -8 26 -4 0 -11 21 -15 48 -4
26 -12 53 -17 60 -7 8 -7 12 1 12 7 0 9 5 6 11 -10 15 -18 67 -19 116 -1 24
-5 43 -9 43 -5 0 -5 5 -2 10 4 6 7 52 7 103 0 51 5 98 11 105 6 8 6 12 -2 12
-7 0 -8 8 -2 23 4 12 7 32 6 45 -1 12 2 22 7 22 4 0 7 3 6 8 -2 5 10 79 16
102 12 43 51 148 59 158 5 6 7 12 4 12 -8 0 72 160 88 177 8 8 15 20 15 28 0
7 3 15 8 17 4 2 23 26 42 53 47 67 64 87 141 164 74 74 124 117 150 131 10 6
24 16 32 24 32 32 229 137 295 156 23 7 42 16 42 20 0 4 6 7 13 8 39 3 57 7
57 12 0 3 8 7 18 8 23 2 57 10 57 13 0 1 11 3 25 4 14 1 36 5 50 9 14 4 49 8
77 9 29 2 55 5 57 8 8 7 103 2 117 -7z"/>
<path d="M2401 3764 c-1 -6 -7 -11 -13 -11 -7 0 -26 -3 -43 -7 -16 -3 -42 -8
-57 -11 -15 -3 -39 -10 -53 -15 -14 -5 -25 -7 -25 -4 0 4 -6 2 -12 -4 -7 -6
-17 -11 -23 -12 -29 -7 -75 -25 -116 -46 -14 -7 -29 -11 -32 -7 -4 3 -9 -2
-13 -11 -3 -9 -13 -16 -21 -16 -13 0 -125 -72 -188 -122 -37 -29 -185 -180
-185 -189 0 -3 -16 -26 -35 -50 -19 -24 -35 -50 -35 -56 0 -7 -4 -13 -8 -13
-9 0 -57 -91 -54 -102 1 -5 -3 -8 -8 -8 -6 0 -10 -6 -10 -13 0 -7 -9 -31 -19
-53 -11 -21 -17 -42 -14 -46 2 -5 0 -8 -4 -8 -5 0 -9 -8 -10 -17 -1 -10 -7
-31 -14 -48 -6 -16 -13 -39 -14 -50 -1 -11 -5 -36 -9 -55 -14 -77 -17 -109
-18 -195 -2 -120 11 -248 31 -305 5 -14 15 -47 22 -75 6 -27 16 -55 20 -61 5
-6 6 -14 2 -17 -3 -4 0 -7 7 -7 7 0 11 -3 7 -6 -6 -7 72 -167 85 -172 4 -2 8
-9 8 -16 0 -7 9 -22 20 -34 12 -12 18 -22 14 -22 -4 0 3 -9 16 -20 13 -11 20
-20 17 -20 -3 0 5 -12 18 -26 14 -15 22 -30 19 -35 -3 -5 0 -9 6 -9 22 0 -2
-63 -57 -148 -30 -48 -54 -88 -52 -89 2 -1 -5 -12 -17 -25 -12 -13 -30 -39
-40 -58 -10 -19 -23 -38 -28 -42 -5 -3 -10 -12 -12 -20 -1 -10 17 -13 75 -12
42 0 82 4 89 8 7 4 12 3 12 -2 0 -11 50 -10 68 1 6 5 12 5 12 0 0 -10 372 -9
388 1 7 4 12 3 12 -2 0 -11 50 -10 68 1 6 5 12 5 12 0 0 -4 82 -7 182 -5 221
3 195 3 241 -1 21 -1 40 0 42 4 2 3 22 5 45 5 22 -1 40 2 40 5 0 4 14 6 30 5
17 -1 30 1 30 4 0 4 6 7 13 7 25 1 64 11 100 26 20 9 37 13 37 10 0 -3 7 0 15
7 8 7 15 9 15 5 0 -4 6 -2 13 4 8 6 17 8 20 4 4 -3 7 -1 7 5 0 7 9 12 21 12
12 0 17 4 14 11 -4 6 -1 9 6 7 8 -1 35 9 61 25 26 15 49 27 53 27 4 0 13 6 20
13 28 24 41 34 52 38 34 12 193 161 193 180 0 7 3 9 6 6 4 -3 20 13 36 36 17
23 37 47 45 54 8 6 14 13 13 15 -1 1 12 26 29 53 17 28 31 54 30 59 0 5 3 12
8 15 11 7 53 96 53 111 0 5 5 10 11 10 5 0 8 4 4 10 -3 5 2 26 11 47 8 21 18
49 20 63 3 14 10 45 15 70 24 104 31 298 15 405 -4 28 -9 59 -11 70 -1 11 -9
40 -16 65 -7 25 -13 48 -15 53 -1 4 -3 9 -4 12 -1 3 -4 10 -5 15 -1 6 -3 11
-5 13 -1 1 -3 9 -5 18 -4 25 -88 193 -97 197 -4 2 -8 10 -8 18 0 8 -4 14 -10
14 -5 0 -10 5 -10 10 0 18 -73 114 -112 149 -10 8 -18 22 -18 30 0 8 -2 12 -6
9 -3 -3 -24 13 -48 36 -49 46 -66 61 -116 96 -19 13 -37 27 -40 30 -3 3 -22
14 -42 25 -21 11 -38 23 -38 27 0 5 -6 8 -13 8 -8 0 -40 13 -73 29 -59 28
-167 66 -214 75 -14 3 -36 8 -50 11 -70 17 -273 26 -308 13 -15 -5 -21 -4 -17
2 4 7 -2 7 -19 0 -17 -6 -26 -6 -30 3 -2 7 -5 8 -5 1z m199 -396 c17 -17 26
-34 21 -38 -6 -3 -6 -11 -2 -19 5 -7 6 -21 4 -31 -4 -16 17 -37 37 -38 49 -3
110 -17 110 -25 0 -6 3 -8 6 -4 12 12 181 -62 208 -92 31 -34 31 -83 1 -120
-35 -40 -74 -41 -152 -2 -93 47 -125 59 -178 67 -42 6 -48 5 -40 -7 12 -16 13
-79 1 -97 -4 -6 -3 -12 1 -12 5 0 8 -22 8 -49 0 -27 -2 -48 -6 -46 -5 4 -4
-31 1 -45 6 -15 4 -77 -2 -92 -5 -9 -4 -20 2 -23 6 -3 7 -17 4 -30 -6 -23 6
-37 34 -41 8 -2 21 -6 30 -10 9 -4 23 -8 31 -10 46 -9 184 -88 222 -126 68
-69 80 -88 95 -156 9 -41 10 -163 1 -169 -4 -2 -5 -9 -2 -14 4 -5 1 -9 -5 -9
-6 0 -10 -6 -9 -12 3 -20 -22 -78 -33 -78 -5 0 -7 -3 -4 -8 10 -17 -94 -113
-160 -148 -41 -22 -125 -46 -139 -40 -8 3 -17 1 -20 -4 -4 -6 -14 -10 -24 -10
-15 0 -18 -7 -17 -37 2 -45 -29 -99 -61 -107 -35 -9 -81 5 -98 30 -8 13 -17
45 -18 71 -3 30 -8 47 -15 46 -7 -2 -12 1 -12 6 0 6 -9 8 -20 6 -11 -2 -22 0
-25 5 -3 5 -12 7 -20 3 -8 -3 -15 -1 -15 5 0 6 -8 9 -17 7 -10 -1 -28 4 -40
11 -13 8 -23 12 -23 9 0 -3 -10 0 -22 7 -13 7 -26 12 -29 13 -11 0 -104 50
-107 58 -2 4 -9 7 -15 7 -7 0 -27 14 -46 31 -59 54 -42 138 33 157 33 9 35 8
144 -57 29 -17 59 -31 67 -31 8 0 15 -4 15 -8 0 -4 21 -13 48 -21 26 -7 57
-16 69 -21 12 -5 24 -6 26 -2 7 12 2 460 -5 467 -3 4 -12 8 -20 9 -7 2 -21 6
-30 9 -10 4 -26 10 -35 14 -10 3 -24 7 -32 9 -8 1 -17 8 -21 14 -4 7 -11 11
-16 11 -63 -5 -198 125 -221 212 -10 37 -15 157 -7 175 4 9 9 26 11 36 2 11 9
26 16 35 9 12 9 13 0 7 -9 -5 -11 -2 -7 8 3 9 10 16 14 16 5 0 11 9 15 20 10
32 93 109 148 136 59 30 137 55 149 48 4 -3 8 0 8 6 0 6 4 9 9 5 14 -8 26 15
27 50 1 34 31 88 45 79 5 -3 9 0 9 5 0 6 16 11 35 11 26 0 42 -8 65 -32z"/>
<path d="M2374 3060 c-50 -22 -94 -58 -94 -77 0 -7 -4 -13 -10 -13 -11 0 -25
-63 -23 -104 3 -48 47 -99 122 -139 38 -21 71 -34 74 -30 2 4 3 91 3 193 -1
207 1 203 -72 170z"/>
<path d="M2625 2387 c0 -29 -4 -58 -9 -64 -5 -8 -5 -13 0 -13 5 0 9 -22 9 -49
0 -27 -2 -48 -6 -46 -5 4 -4 -31 1 -45 6 -16 4 -77 -4 -87 -5 -8 -4 -13 1 -13
6 0 10 -15 9 -32 -1 -20 4 -32 10 -31 6 1 24 4 38 7 41 7 114 53 133 84 10 15
22 30 27 34 5 3 11 35 12 69 4 94 -26 140 -125 191 -24 13 -47 23 -50 23 -3 1
-15 6 -26 12 -20 11 -21 9 -20 -40z"/>
</g>
</svg>
